<svg id="Layer_1" data-name="Layer 1" xmlns="http://www.w3.org/2000/svg" viewBox="0 0 450 248.47">
  <defs>
    <style>
      .cls-1 {
        fill: #41f2af;
      }
    </style>
  </defs>
  <title>Untitled-1</title>
  <path d="M457.88,265.81h29.44v34.52h27.54V265.81h29.44v89H514.86V322.66H487.32v32.11H457.88Z" transform="translate(-457.88 -260.61)"/>
  <path d="M557,265.81h29.44v89H557Z" transform="translate(-457.88 -260.61)"/>
  <path d="M619,333.19q3.75,3.42,3.75,9.39a18.48,18.48,0,0,1-3.43,10.15L607,371.27h-13.2l7.75-18.66a11.57,11.57,0,0,1-4.82-9.9,12.53,12.53,0,0,1,3.68-9.33,12.85,12.85,0,0,1,9.4-3.61A13.1,13.1,0,0,1,619,333.19Z" transform="translate(-457.88 -260.61)"/>
  <path d="M658.13,265.81h29.44v89H658.13Z" transform="translate(-457.88 -260.61)"/>
  <path d="M720.12,264q3.75,3.43,3.75,9.39a18.48,18.48,0,0,1-3.43,10.15L708.13,302.1h-13.2l7.75-18.66a11.57,11.57,0,0,1-4.82-9.9,12.53,12.53,0,0,1,3.68-9.33,12.85,12.85,0,0,1,9.4-3.61A13.1,13.1,0,0,1,720.12,264Z" transform="translate(-457.88 -260.61)"/>
  <path d="M733.89,265.81h31.22l22.08,46.45,22-46.45h31.22v89H814.61V306l-17.9,40.1H777.54L759.66,306v48.73H733.89Z" transform="translate(-457.88 -260.61)"/>
  <path class="cls-1" d="M457.88,420.12h75.26v22.34H487.32v10.91h41.63v22.34H487.32v11h47v22.33h-76.4Z" transform="translate(-457.88 -260.61)"/>
  <path class="cls-1" d="M545.44,420.12h29.44v64.47h37.06v24.49h-66.5Z" transform="translate(-457.88 -260.61)"/>
  <path class="cls-1" d="M619.55,420.12H649v64.47h37.06v24.49h-66.5Z" transform="translate(-457.88 -260.61)"/>
  <path class="cls-1" d="M693.66,420.12h29.44v89H693.66Z" transform="translate(-457.88 -260.61)"/>
  <path class="cls-1" d="M804.3,425.72A42.24,42.24,0,0,1,821,441.54a43.61,43.61,0,0,1,6,22.75,44.49,44.49,0,0,1-6,23,42.41,42.41,0,0,1-16.74,16,53.13,53.13,0,0,1-48.19,0,42.32,42.32,0,0,1-16.73-16,44.4,44.4,0,0,1-6-23,43.76,43.76,0,0,1,6-22.88,41.74,41.74,0,0,1,16.73-15.76,53.89,53.89,0,0,1,48.19.06Zm-32.79,20.51a19.59,19.59,0,0,0-6.7,7.48,22.66,22.66,0,0,0-2.5,10.71,23,23,0,0,0,2.5,10.77,20,20,0,0,0,6.7,7.61,16,16,0,0,0,9.06,2.8,15.4,15.4,0,0,0,8.88-2.74,18.69,18.69,0,0,0,6.33-7.61,24.86,24.86,0,0,0,2.32-10.83,24.48,24.48,0,0,0-2.32-10.77,18.35,18.35,0,0,0-6.33-7.49,15.67,15.67,0,0,0-8.88-2.67A16.23,16.23,0,0,0,771.51,446.23Z" transform="translate(-457.88 -260.61)"/>
  <path class="cls-1" d="M827.8,420.12h80.08v23.23H882.5v65.73H853.06V443.35H827.8Z" transform="translate(-457.88 -260.61)"/>
</svg>
