<?xml version="1.0" encoding="utf-8"?>
<!-- Generator: Adobe Illustrator 21.1.0, SVG Export Plug-In . SVG Version: 6.00 Build 0)  -->
<svg version="1.1" id="Layer_1" xmlns="http://www.w3.org/2000/svg" xmlns:xlink="http://www.w3.org/1999/xlink" x="0px" y="0px"
	 viewBox="0 0 16 193" style="enable-background:new 0 0 16 193;" xml:space="preserve">
<style type="text/css">
	.st0{fill:#66FFCC;}
</style>
<g>
	<path d="M6.3,183.7c1.9,0,3.3,0.5,4.3,1.6c1,1,1.5,2.6,1.5,4.5v3.2H0.7v-3.5c0-1.8,0.5-3.2,1.5-4.3C3.2,184.2,4.6,183.7,6.3,183.7z
		 M6.4,185.7c-2.7,0-4.1,1.3-4.1,3.8v1.6h8.3v-1.3C10.6,187,9.2,185.7,6.4,185.7z"/>
	<path d="M12.3,177.6c0,1.3-0.4,2.4-1.2,3.2c-0.8,0.8-1.9,1.1-3.2,1.1c-1.4,0-2.5-0.4-3.3-1.1c-0.8-0.7-1.2-1.7-1.2-2.9
		c0-1.1,0.3-2,1-2.7c0.7-0.7,1.6-1,2.9-1h1v5.8c0.8,0,1.5-0.3,1.9-0.7c0.5-0.4,0.7-1,0.7-1.8c0-0.5,0-1-0.1-1.4
		c-0.1-0.4-0.3-0.9-0.5-1.4h1.5c0.2,0.5,0.4,0.9,0.5,1.4C12.3,176.5,12.3,177.1,12.3,177.6z M4.8,178c0,0.6,0.2,1.1,0.6,1.4
		c0.4,0.4,0.9,0.6,1.6,0.6v-3.9c-0.7,0-1.3,0.2-1.6,0.5C4.9,176.9,4.8,177.4,4.8,178z"/>
	<path d="M9.7,166.4c0.8,0,1.5,0.3,1.9,0.9c0.5,0.6,0.7,1.5,0.7,2.6c0,1.2-0.2,2.1-0.5,2.8h-1.6c0.5-1,0.7-2,0.7-2.8
		c0-1.1-0.3-1.7-1-1.7c-0.2,0-0.4,0.1-0.5,0.2c-0.1,0.1-0.3,0.3-0.5,0.6c-0.2,0.3-0.3,0.7-0.5,1.2c-0.4,1-0.8,1.7-1.2,2
		c-0.4,0.4-0.9,0.5-1.5,0.5c-0.7,0-1.3-0.3-1.7-0.9c-0.4-0.6-0.6-1.4-0.6-2.4c0-1,0.2-2,0.6-2.9l1.4,0.6c-0.4,0.9-0.6,1.7-0.6,2.4
		c0,1,0.3,1.5,0.8,1.5c0.3,0,0.5-0.1,0.7-0.4c0.2-0.3,0.4-0.8,0.8-1.7c0.3-0.7,0.5-1.2,0.8-1.6c0.2-0.3,0.5-0.6,0.8-0.7
		C8.9,166.4,9.3,166.4,9.7,166.4z"/>
	<path d="M1.2,164.5c-0.3,0-0.6-0.1-0.8-0.3c-0.2-0.2-0.3-0.4-0.3-0.8c0-0.3,0.1-0.6,0.3-0.8c0.2-0.2,0.4-0.3,0.8-0.3
		c0.3,0,0.6,0.1,0.7,0.3s0.3,0.4,0.3,0.8c0,0.3-0.1,0.6-0.3,0.8S1.5,164.5,1.2,164.5z M12.2,162.5v1.8H3.5v-1.8H12.2z"/>
	<path d="M3.5,152.6h1l0.3,1.5c0.2-0.1,0.4-0.2,0.7-0.3c0.3-0.1,0.5-0.1,0.8-0.1c0.9,0,1.6,0.3,2.1,0.9c0.5,0.6,0.8,1.5,0.8,2.5
		c0,0.3,0,0.5-0.1,0.8c0.2,0.4,0.5,0.6,0.9,0.6c0.2,0,0.3-0.1,0.4-0.3c0.1-0.2,0.1-0.5,0.1-1v-1.5c0-1,0.2-1.7,0.6-2.2
		c0.4-0.5,1-0.7,1.8-0.7c1,0,1.7,0.4,2.3,1.2c0.5,0.8,0.8,2,0.8,3.5c0,1.2-0.2,2.1-0.6,2.7c-0.4,0.6-1,0.9-1.8,0.9
		c-0.5,0-1-0.2-1.3-0.5s-0.6-0.8-0.8-1.4c-0.1,0.2-0.3,0.4-0.5,0.6c-0.2,0.2-0.5,0.2-0.7,0.2c-0.3,0-0.6-0.1-0.8-0.3
		c-0.2-0.2-0.4-0.5-0.7-0.8c-0.2,0.5-0.5,0.8-0.9,1.1c-0.4,0.3-0.9,0.4-1.5,0.4c-0.9,0-1.7-0.3-2.2-0.9c-0.5-0.6-0.8-1.4-0.8-2.5
		c0-0.2,0-0.5,0.1-0.8c0-0.3,0.1-0.5,0.1-0.6V152.6z M6.3,158.6c0.5,0,1-0.1,1.3-0.4c0.3-0.3,0.4-0.7,0.4-1.2c0-1.1-0.6-1.6-1.7-1.6
		c-0.6,0-1,0.1-1.3,0.4c-0.3,0.3-0.5,0.7-0.5,1.2c0,0.5,0.2,0.9,0.5,1.2C5.3,158.5,5.7,158.6,6.3,158.6z M13.5,159.4
		c0.4,0,0.7-0.2,0.9-0.5c0.2-0.4,0.3-0.9,0.3-1.5c0-1-0.1-1.7-0.4-2.2c-0.3-0.5-0.7-0.7-1.1-0.7c-0.4,0-0.6,0.1-0.8,0.4
		c-0.2,0.3-0.2,0.8-0.2,1.5v1.4c0,0.5,0.1,0.9,0.4,1.3C12.7,159.2,13.1,159.4,13.5,159.4z"/>
	<path d="M12.2,143.4v1.8H6.8c-0.7,0-1.2,0.1-1.5,0.4c-0.3,0.3-0.5,0.7-0.5,1.3c0,0.8,0.2,1.3,0.7,1.7c0.5,0.4,1.2,0.5,2.3,0.5h4.3
		v1.8H3.5v-1.4l1.1-0.3v-0.1c-0.4-0.3-0.7-0.6-1-1.1c-0.2-0.5-0.3-1-0.3-1.6c0-2.1,1.1-3.1,3.2-3.1H12.2z"/>
	<path d="M12.3,137c0,1.3-0.4,2.4-1.2,3.2c-0.8,0.8-1.9,1.1-3.2,1.1c-1.4,0-2.5-0.4-3.3-1.1c-0.8-0.7-1.2-1.7-1.2-2.9
		c0-1.1,0.3-2,1-2.7c0.7-0.7,1.6-1,2.9-1h1v5.8c0.8,0,1.5-0.3,1.9-0.7c0.5-0.4,0.7-1,0.7-1.8c0-0.5,0-1-0.1-1.4
		c-0.1-0.4-0.3-0.9-0.5-1.4h1.5c0.2,0.5,0.4,0.9,0.5,1.4C12.3,135.9,12.3,136.4,12.3,137z M4.8,137.4c0,0.6,0.2,1.1,0.6,1.4
		c0.4,0.4,0.9,0.6,1.6,0.6v-3.9c-0.7,0-1.3,0.2-1.6,0.5C4.9,136.3,4.8,136.8,4.8,137.4z"/>
	<path d="M3.4,127.2c0-0.4,0-0.7,0.1-0.9l1.7,0.2c-0.1,0.3-0.1,0.5-0.1,0.8c0,0.7,0.2,1.3,0.7,1.8c0.5,0.5,1.1,0.7,1.9,0.7h4.5v1.8
		H3.5v-1.4l1.5-0.2v-0.1c-0.5-0.3-0.9-0.7-1.2-1.1C3.5,128.2,3.4,127.7,3.4,127.2z"/>
	<path class="st0" d="M10.9,125.3c-0.5,0-0.8-0.1-1.1-0.4c-0.3-0.3-0.4-0.7-0.4-1.2c0-0.5,0.1-0.9,0.4-1.2c0.3-0.3,0.6-0.4,1.1-0.4
		c0.5,0,0.8,0.1,1.1,0.4c0.3,0.3,0.4,0.7,0.4,1.2c0,0.5-0.1,0.9-0.4,1.2C11.7,125.1,11.3,125.3,10.9,125.3z"/>
	<path d="M12.2,110.7L2.6,114v0.1c1.4-0.1,2.7-0.1,4-0.1h5.6v1.7H0.7V113l9.1-3.2v0l-9.1-3.3v-2.6h11.4v1.8H6.5c-0.6,0-1.3,0-2.2,0
		c-0.9,0-1.5-0.1-1.7-0.1v0.1l9.5,3.4V110.7z"/>
	<path d="M12.2,95.6L11,96v0.1c0.5,0.4,0.9,0.8,1.1,1.3s0.3,1,0.3,1.6c0,0.9-0.2,1.5-0.7,2c-0.5,0.5-1.1,0.7-1.9,0.7
		c-0.9,0-1.6-0.3-2-1C7.2,100,7,99,6.9,97.6l0-1.5H6.4c-0.6,0-1,0.1-1.2,0.4c-0.3,0.3-0.4,0.7-0.4,1.2c0,0.4,0.1,0.9,0.2,1.3
		c0.1,0.4,0.3,0.8,0.5,1.2l-1.3,0.6c-0.2-0.5-0.4-1-0.6-1.5c-0.1-0.6-0.2-1.1-0.2-1.6c0-1.1,0.2-1.9,0.7-2.5
		c0.5-0.6,1.2-0.8,2.3-0.8h5.8V95.6z M10.9,98.4c0-0.7-0.2-1.2-0.6-1.6c-0.4-0.4-0.9-0.6-1.6-0.6H8l0,1.1c0,0.9,0.2,1.5,0.4,1.9
		c0.3,0.4,0.7,0.6,1.2,0.6c0.4,0,0.7-0.1,0.9-0.3C10.8,99.2,10.9,98.8,10.9,98.4z"/>
	<path d="M7.6,90l-1.3-1l-2.8-2.6v-2.1l3.7,3.5l4.9-3.7v2.2l-3.8,2.8l0.8,1h3v1.8H0v-1.8h5.9L7.6,90L7.6,90z"/>
	<path d="M12.3,78.8c0,1.3-0.4,2.4-1.2,3.2c-0.8,0.8-1.9,1.1-3.2,1.1c-1.4,0-2.5-0.4-3.3-1.1c-0.8-0.7-1.2-1.7-1.2-2.9
		c0-1.1,0.3-2,1-2.7c0.7-0.7,1.6-1,2.9-1h1v5.8c0.8,0,1.5-0.3,1.9-0.7c0.5-0.4,0.7-1,0.7-1.8c0-0.5,0-1-0.1-1.4
		c-0.1-0.4-0.3-0.9-0.5-1.4h1.5c0.2,0.4,0.4,0.9,0.5,1.4C12.3,77.7,12.3,78.2,12.3,78.8z M4.8,79.1c0,0.6,0.2,1.1,0.6,1.4
		c0.4,0.4,0.9,0.6,1.6,0.6v-3.9c-0.7,0-1.3,0.2-1.6,0.5C4.9,78.1,4.8,78.6,4.8,79.1z"/>
	<path d="M3.4,68.9c0-0.4,0-0.7,0.1-0.9l1.7,0.2c-0.1,0.3-0.1,0.5-0.1,0.8c0,0.7,0.2,1.3,0.7,1.8c0.5,0.5,1.1,0.7,1.9,0.7h4.5v1.8
		H3.5v-1.4L5,71.7v-0.1c-0.5-0.3-0.9-0.7-1.2-1.1C3.5,70,3.4,69.5,3.4,68.9z"/>
	<path class="st0" d="M10.9,67.1c-0.5,0-0.8-0.1-1.1-0.4c-0.3-0.3-0.4-0.7-0.4-1.2c0-0.5,0.1-0.9,0.4-1.2c0.3-0.3,0.6-0.4,1.1-0.4
		c0.5,0,0.8,0.1,1.1,0.4c0.3,0.3,0.4,0.7,0.4,1.2c0,0.5-0.1,0.9-0.4,1.2C11.7,66.9,11.3,67.1,10.9,67.1z"/>
	<path d="M12.2,53.5v1.9H2.3v3.4H0.7v-8.6h1.6v3.4H12.2z"/>
	<path d="M12.2,40.9v1.8H6.8c-0.7,0-1.2,0.1-1.5,0.4c-0.3,0.3-0.5,0.7-0.5,1.3c0,0.8,0.2,1.3,0.7,1.7c0.5,0.4,1.2,0.5,2.3,0.5h4.3
		v1.8H0v-1.8h3.1c0.5,0,1,0,1.6,0.1v-0.1c-0.4-0.3-0.7-0.6-1-1c-0.2-0.4-0.3-1-0.3-1.6c0-2.1,1.1-3.1,3.2-3.1H12.2z"/>
	<path d="M1.2,38.5c-0.3,0-0.6-0.1-0.8-0.3c-0.2-0.2-0.3-0.4-0.3-0.8c0-0.3,0.1-0.6,0.3-0.8c0.2-0.2,0.4-0.3,0.8-0.3
		c0.3,0,0.6,0.1,0.7,0.3s0.3,0.4,0.3,0.8c0,0.3-0.1,0.6-0.3,0.8S1.5,38.5,1.2,38.5z M12.2,36.5v1.8H3.5v-1.8H12.2z"/>
	<path d="M12.2,26.3v1.8H6.8c-0.7,0-1.2,0.1-1.5,0.4c-0.3,0.3-0.5,0.7-0.5,1.3c0,0.8,0.2,1.3,0.7,1.7c0.5,0.4,1.2,0.5,2.3,0.5h4.3
		v1.8H3.5v-1.4l1.1-0.3v-0.1c-0.4-0.3-0.7-0.6-1-1.1c-0.2-0.5-0.3-1-0.3-1.6c0-2.1,1.1-3.1,3.2-3.1H12.2z"/>
	<path d="M7.6,21.9l-1.3-1l-2.8-2.6v-2.1l3.7,3.5l4.9-3.7v2.2l-3.8,2.8l0.8,1h3v1.8H0v-1.8h5.9L7.6,21.9L7.6,21.9z"/>
	<path d="M12.3,10.8c0,1.3-0.4,2.4-1.2,3.2c-0.8,0.8-1.9,1.1-3.2,1.1c-1.4,0-2.5-0.4-3.3-1.1c-0.8-0.7-1.2-1.7-1.2-2.9
		c0-1.1,0.3-2,1-2.7c0.7-0.7,1.6-1,2.9-1h1v5.8c0.8,0,1.5-0.3,1.9-0.7c0.5-0.4,0.7-1,0.7-1.8c0-0.5,0-1-0.1-1.4
		c-0.1-0.4-0.3-0.9-0.5-1.4h1.5c0.2,0.4,0.4,0.9,0.5,1.4C12.3,9.7,12.3,10.2,12.3,10.8z M4.8,11.1c0,0.6,0.2,1.1,0.6,1.4
		c0.4,0.4,0.9,0.6,1.6,0.6V9.2c-0.7,0-1.3,0.2-1.6,0.5C4.9,10.1,4.8,10.5,4.8,11.1z"/>
	<path d="M3.4,0.9c0-0.4,0-0.7,0.1-0.9l1.7,0.2C5.1,0.4,5.1,0.7,5.1,1c0,0.7,0.2,1.3,0.7,1.8c0.5,0.5,1.1,0.7,1.9,0.7h4.5v1.8H3.5
		V3.9L5,3.6V3.5C4.5,3.2,4.1,2.9,3.8,2.4C3.5,1.9,3.4,1.4,3.4,0.9z"/>
</g>
<g>
</g>
<g>
</g>
<g>
</g>
<g>
</g>
<g>
</g>
<g>
</g>
</svg>
